<?xml version="1.0" encoding="UTF-8"?>
<!DOCTYPE svg PUBLIC "-//W3C//DTD SVG 1.1//EN" "http://www.w3.org/Graphics/SVG/1.1/DTD/svg11.dtd">
<svg xmlns="http://www.w3.org/2000/svg" version="1.1" width="500px" height="126px" style="shape-rendering:geometricPrecision; text-rendering:geometricPrecision; image-rendering:optimizeQuality; fill-rule:evenodd; clip-rule:evenodd" xmlns:xlink="http://www.w3.org/1999/xlink">
<g><path style="opacity:0.071" fill="#ffffff" d="M 88.5,9.5 C 95.6275,9.70634 97.2942,12.873 93.5,19C 88.9322,20.6505 86.2656,19.1505 85.5,14.5C 85.7573,12.3076 86.7573,10.6409 88.5,9.5 Z"/></g>
<g><path style="opacity:1" fill="#ffffff" d="M 87.5,11.5 C 94.1904,10.3306 95.8571,12.4973 92.5,18C 91.1667,18.6667 89.8333,18.6667 88.5,18C 87.5769,15.9592 87.2436,13.7925 87.5,11.5 Z"/></g>
<g><path style="opacity:0.998" fill="#ffffff" d="M 70.5,24.5 C 68.8607,26.9422 66.8607,27.1089 64.5,25C 61.825,20.5083 63.1583,17.675 68.5,16.5C 70.7916,17.6265 72.1249,19.4598 72.5,22C 72.3158,23.3756 71.6491,24.2089 70.5,24.5 Z"/></g>
<g><path style="opacity:1" fill="#ffffff" d="M 111.5,14.5 C 114.652,14.0471 117.152,15.0471 119,17.5C 119.502,20.8245 118.169,23.1578 115,24.5C 109.28,22.7209 108.114,19.3875 111.5,14.5 Z"/></g>
<g><path style="opacity:1" fill="#ffffff" d="M 70.5,24.5 C 66.062,25.5749 64.062,23.9083 64.5,19.5C 68.938,18.4251 70.938,20.0917 70.5,24.5 Z"/></g>
<g><path style="opacity:0.851" fill="#ffffff" d="M 94.5,24.5 C 92.8333,24.5 91.1667,24.5 89.5,24.5C 88.9174,28.9294 90.5841,30.2628 94.5,28.5C 91.0445,31.544 88.7112,30.7106 87.5,26C 88.4933,24.0328 90.16,22.8661 92.5,22.5C 93.5223,22.8555 94.189,23.5222 94.5,24.5 Z"/></g>
<g><path style="opacity:0.998" fill="#ffffff" d="M 94.5,24.5 C 95.8333,25.8333 95.8333,27.1667 94.5,28.5C 90.5841,30.2628 88.9174,28.9294 89.5,24.5C 91.1667,24.5 92.8333,24.5 94.5,24.5 Z"/></g>
<g><path style="opacity:1" fill="#fff4f4" d="M 78.5,30.5 C 79.1693,34.6759 77.6693,36.0093 74,34.5C 73.51,33.2068 73.3433,31.8734 73.5,30.5C 75.1667,29.1667 76.8333,29.1667 78.5,30.5 Z"/></g>
<g><path style="opacity:0.871" fill="#ffffff" d="M 131.5,28.5 C 137.243,28.7163 139.076,31.383 137,36.5C 132.927,39.1972 130.093,38.1972 128.5,33.5C 128.757,31.3076 129.757,29.6409 131.5,28.5 Z"/></g>
<g><path style="opacity:0.037" fill="#ffffff" d="M 109.5,26.5 C 110.708,27.2341 112.041,27.5674 113.5,27.5C 114.921,33.1132 112.921,35.2799 107.5,34C 104.781,30.6029 105.448,28.1029 109.5,26.5 Z"/></g>
<g><path style="opacity:0.999" fill="#ffffff" d="M 107.5,28.5 C 109.167,28.5 110.833,28.5 112.5,28.5C 113.169,32.6759 111.669,34.0093 108,32.5C 107.51,31.2068 107.343,29.8734 107.5,28.5 Z"/></g>
<g><path style="opacity:0.142" fill="#ffffff" d="M 73.5,30.5 C 73.3433,31.8734 73.51,33.2068 74,34.5C 77.6693,36.0093 79.1693,34.6759 78.5,30.5C 80.8632,32.083 80.8632,33.9164 78.5,36C 74.8721,37.316 72.5388,36.1493 71.5,32.5C 71.8555,31.4777 72.5222,30.811 73.5,30.5 Z"/></g>
<g><path style="opacity:1" fill="#ffffff" d="M 130.5,30.5 C 132.167,30.5 133.833,30.5 135.5,30.5C 135.5,32.5 135.5,34.5 135.5,36.5C 133.833,36.5 132.167,36.5 130.5,36.5C 130.5,34.5 130.5,32.5 130.5,30.5 Z"/></g>
<g><path style="opacity:1" fill="#ffffff" d="M 48.5,33.5 C 54.9355,33.5382 56.6022,36.3716 53.5,42C 45.6916,42.5417 44.0249,39.7083 48.5,33.5 Z"/></g>
<g><path style="opacity:1" fill="#ffffff" d="M 126.5,39.5 C 127.833,40.5 127.833,41.5 126.5,42.5C 124.958,43.3007 123.292,43.634 121.5,43.5C 121.5,42.1667 121.5,40.8333 121.5,39.5C 123.167,39.5 124.833,39.5 126.5,39.5 Z"/></g>
<g><path style="opacity:0.439" fill="#ffffff" d="M 66.5,42.5 C 64.8333,42.5 63.1667,42.5 61.5,42.5C 63.1667,39.8333 64.8333,39.8333 66.5,42.5 Z"/></g>
<g><path style="opacity:0.651" fill="#ffffff" d="M 126.5,39.5 C 124.833,39.5 123.167,39.5 121.5,39.5C 121.5,40.8333 121.5,42.1667 121.5,43.5C 123.292,43.634 124.958,43.3007 126.5,42.5C 125.868,45.4919 124.201,46.1586 121.5,44.5C 118.845,41.4195 119.512,39.0862 123.5,37.5C 124.739,37.9424 125.739,38.6091 126.5,39.5 Z"/></g>
<g><path style="opacity:0.353" fill="#ffffff" d="M 61.5,42.5 C 60.8307,46.6759 62.3307,48.0093 66,46.5C 66.49,45.2068 66.6567,43.8734 66.5,42.5C 68.231,45.6276 67.3977,47.9609 64,49.5C 60.6023,47.9609 59.769,45.6276 61.5,42.5 Z"/></g>
<g><path style="opacity:0.998" fill="#ffffff" d="M 61.5,42.5 C 63.1667,42.5 64.8333,42.5 66.5,42.5C 66.6567,43.8734 66.49,45.2068 66,46.5C 62.3307,48.0093 60.8307,46.6759 61.5,42.5 Z"/></g>
<g><path style="opacity:0.071" fill="#ffffff" d="M 248.5,52.5 C 249.493,61.3178 249.827,70.3178 249.5,79.5C 251.167,79.5 252.833,79.5 254.5,79.5C 254.795,81.7354 254.461,83.7354 253.5,85.5C 253.5,85.1667 253.5,84.8333 253.5,84.5C 253.5,83.1667 253.5,81.8333 253.5,80.5C 251.833,80.5 250.167,80.5 248.5,80.5C 248.5,71.5 248.5,62.5 248.5,53.5C 248.5,53.1667 248.5,52.8333 248.5,52.5 Z"/></g>
<g><path style="opacity:0.353" fill="#ffffff" d="M 279.5,52.5 C 279.5,52.8333 279.5,53.1667 279.5,53.5C 276.5,53.5 273.5,53.5 270.5,53.5C 270.5,54.5 270.5,55.5 270.5,56.5C 272.099,56.2322 273.432,56.5655 274.5,57.5C 272.833,57.5 271.167,57.5 269.5,57.5C 269.5,55.8333 269.5,54.1667 269.5,52.5C 272.833,52.5 276.167,52.5 279.5,52.5 Z"/></g>
<g><path style="opacity:0.046" fill="#ffffff" d="M 279.5,53.5 C 279.5,53.1667 279.5,52.8333 279.5,52.5C 281.471,61.1045 282.138,70.1045 281.5,79.5C 283.167,79.5 284.833,79.5 286.5,79.5C 286.795,81.7354 286.461,83.7354 285.5,85.5C 285.5,85.1667 285.5,84.8333 285.5,84.5C 285.5,83.1667 285.5,81.8333 285.5,80.5C 283.833,80.5 282.167,80.5 280.5,80.5C 280.827,71.3178 280.493,62.3178 279.5,53.5 Z"/></g>
<g><path style="opacity:0.137" fill="#ffffff" d="M 432.5,52.5 C 435.167,52.5 437.833,52.5 440.5,52.5C 440.5,54.8333 440.5,57.1667 440.5,59.5C 437.833,59.5 435.167,59.5 432.5,59.5C 432.5,57.1667 432.5,54.8333 432.5,52.5 Z"/></g>
<g><path style="opacity:1" fill="#ffffff" d="M 279.5,53.5 C 279.663,58.547 279.329,63.547 278.5,68.5C 277.5,68.5 276.5,68.5 275.5,68.5C 275.815,64.6286 275.482,60.9619 274.5,57.5C 273.432,56.5655 272.099,56.2322 270.5,56.5C 270.5,55.5 270.5,54.5 270.5,53.5C 273.5,53.5 276.5,53.5 279.5,53.5 Z"/></g>
<g><path style="opacity:1" fill="#ffffff1" d="M 46.5,56.5 C 46.973,61.0234 44.973,63.3568 40.5,63.5C 40.5,61.5 40.5,59.5 40.5,57.5C 40.9704,56.3065 41.9704,55.6399 43.5,55.5C 44.7261,55.5195 45.7261,55.8529 46.5,56.5 Z"/></g>
<g><path style="opacity:0.965" fill="#ffffff" d="M 433.5,53.5 C 435.5,53.5 437.5,53.5 439.5,53.5C 439.5,55.1667 439.5,56.8333 439.5,58.5C 437.5,58.5 435.5,58.5 433.5,58.5C 433.5,56.8333 433.5,55.1667 433.5,53.5 Z"/></g>
<g><path style="opacity:0.996" fill="#ffffff" d="M 46.5,56.5 C 47.1174,56.6107 47.6174,56.944 48,57.5C 49.6505,62.0678 48.1505,64.7344 43.5,65.5C 40.2667,65.0997 38.6001,63.2664 38.5,60C 38.6842,58.6244 39.3509,57.7911 40.5,57.5C 40.5,59.5 40.5,61.5 40.5,63.5C 44.973,63.3568 46.973,61.0234 46.5,56.5 Z"/></g>
<g><path style="opacity:0.016" fill="#ffffff" d="M 150.5,61.5 C 151.833,61.5 152.5,62.1667 152.5,63.5C 151.5,63.1667 150.833,62.5 150.5,61.5 Z"/></g>
<g><path style="opacity:0.875" fill="#ffffff" d="M 162.5,65.5 C 160.196,62.3869 157.196,61.7202 153.5,63.5C 154.334,62.2521 155.667,61.5854 157.5,61.5C 160.958,60.7741 162.625,62.1075 162.5,65.5 Z"/></g>
<g><path style="opacity:0.129" fill="#ffffff" d="M 216.5,61.5 C 219.01,61.0535 221.01,61.7202 222.5,63.5C 220.302,63.1249 218.302,62.4582 216.5,61.5 Z"/></g>
<g><path style="opacity:0.867" fill="#ffffff" d="M 318.5,64.5 C 316.883,63.962 315.216,63.6287 313.5,63.5C 310.269,62.2185 306.936,62.2185 303.5,63.5C 305.048,62.2057 307.048,61.5391 309.5,61.5C 311.5,61.6667 313.5,61.8333 315.5,62C 316.942,62.3768 317.942,63.2101 318.5,64.5 Z"/></g>
<g><path style="opacity:0.878" fill="#ffffff" d="M 348.5,62.5 C 347.167,62.5 345.833,62.5 344.5,62.5C 342.435,62.5172 340.435,62.8505 338.5,63.5C 338.611,62.8826 338.944,62.3826 339.5,62C 342.696,61.1955 345.696,61.3622 348.5,62.5 Z"/></g>
<g><path style="opacity:0.204" fill="#ffffff" d="M 375.5,61.5 C 381.611,60.6478 383.945,62.9811 382.5,68.5C 381.209,68.7373 380.209,68.404 379.5,67.5C 380.586,67.38 381.253,66.7133 381.5,65.5C 381.167,64.8333 380.833,64.1667 380.5,63.5C 378.664,62.9724 376.997,62.3058 375.5,61.5 Z"/></g>
<g><path style="opacity:0.153" fill="#ffffff" d="M 406.5,61.5 C 409.01,61.0535 411.01,61.7202 412.5,63.5C 411.833,63.5 411.167,63.5 410.5,63.5C 409.167,62.8333 407.833,62.1667 406.5,61.5 Z"/></g>
<g><path style="opacity:0.018" fill="#ffffff" d="M 444.5,85.5 C 444.5,85.1667 444.5,84.8333 444.5,84.5C 444.5,83.1667 444.5,81.8333 444.5,80.5C 442.5,80.5 440.5,80.5 438.5,80.5C 438.5,74.5 438.5,68.5 438.5,62.5C 435.5,62.5 432.5,62.5 429.5,62.5C 429.5,63.8333 429.5,65.1667 429.5,66.5C 430.833,66.5 432.167,66.5 433.5,66.5C 433.5,66.8333 433.5,67.1667 433.5,67.5C 431.833,67.5 430.167,67.5 428.5,67.5C 428.5,65.5 428.5,63.5 428.5,61.5C 432.5,61.5 436.5,61.5 440.5,61.5C 440.5,67.5 440.5,73.5 440.5,79.5C 442.167,79.5 443.833,79.5 445.5,79.5C 445.795,81.7354 445.461,83.7354 444.5,85.5 Z"/></g>
<g><path style="opacity:0.878" fill="#ffffff" d="M 60.5,62.5 C 58.8607,64.9422 56.8607,65.1089 54.5,63C 53.1354,57.5793 55.1354,55.746 60.5,57.5C 61.7879,59.2985 61.7879,60.9652 60.5,62.5 Z"/></g>
<g><path style="opacity:1" fill="#ffffff" d="M 60.5,62.5 C 58.8333,62.5 57.1667,62.5 55.5,62.5C 55.5,61.1667 55.5,59.8333 55.5,58.5C 57.1667,58.5 58.8333,58.5 60.5,58.5C 60.5,59.8333 60.5,61.1667 60.5,62.5 Z"/></g>
<g><path style="opacity:0.725" fill="#ffffff" d="M 179.5,61.5 C 179.027,62.9063 178.027,63.573 176.5,63.5C 176.973,62.0937 177.973,61.427 179.5,61.5 Z"/></g>
<g><path style="opacity:0.408" fill="#ffffff" d="M 184.5,61.5 C 187.491,61.1663 189.824,62.1663 191.5,64.5C 188.982,63.7362 186.649,62.7362 184.5,61.5 Z"/></g>
<g><path style="opacity:0.031" fill="#ffffff" d="M 348.5,62.5 C 349.833,62.5 350.5,63.1667 350.5,64.5C 349.5,64.1667 348.833,63.5 348.5,62.5 Z"/></g>
<g><path style="opacity:0.584" fill="#ffffff" d="M 371.5,61.5 C 369.157,62.3443 366.824,63.3443 364.5,64.5C 366.036,61.9078 368.369,60.9078 371.5,61.5 Z"/></g>
<g><path style="opacity:0.588" fill="#ffffff" d="M 402.5,61.5 C 400.698,62.4582 398.698,63.1249 396.5,63.5C 397.99,61.7202 399.99,61.0535 402.5,61.5 Z"/></g>
<g><path style="opacity:0.998" fill="#ffffff" d="M 179.5,61.5 C 181.167,61.5 182.833,61.5 184.5,61.5C 186.649,62.7362 188.982,63.7362 191.5,64.5C 191.5,65.1667 191.5,65.8333 191.5,66.5C 189.121,65.4331 188.121,66.4331 188.5,69.5C 189.043,69.56 189.376,69.8933 189.5,70.5C 185.217,71.4922 180.884,71.8256 176.5,71.5C 176.815,69.2642 176.815,66.9309 176.5,64.5C 176.5,64.1667 176.5,63.8333 176.5,63.5C 178.027,63.573 179.027,62.9063 179.5,61.5 Z M 186.5,67.5 C 186.833,68.5 187.5,69.1667 188.5,69.5C 185.024,70.6433 181.358,70.8099 177.5,70C 178.381,69.2917 179.047,68.4584 179.5,67.5C 181.833,66.1667 184.167,66.1667 186.5,67.5 Z"/></g>
<g><path style="opacity:1" fill="#ffffff" d="M 402.5,61.5 C 403.833,61.5 405.167,61.5 406.5,61.5C 407.833,62.1667 409.167,62.8333 410.5,63.5C 410.027,64.9063 409.027,65.573 407.5,65.5C 404.123,65.0679 401.123,65.7345 398.5,67.5C 397.5,67.5 396.5,67.5 395.5,67.5C 394.876,67.0831 394.543,66.4164 394.5,65.5C 394.747,64.2867 395.414,63.62 396.5,63.5C 398.698,63.1249 400.698,62.4582 402.5,61.5 Z"/></g>
<g><path style="opacity:0.024" fill="#ffffff" d="M 412.5,63.5 C 414.048,63.8212 414.715,64.8212 414.5,66.5C 414.167,66.5 413.833,66.5 413.5,66.5C 413.443,65.391 413.11,64.391 412.5,63.5 Z"/></g>
<g><path style="opacity:0.474" fill="#ffffff" d="M 248.5,52.5 C 248.5,52.8333 248.5,53.1667 248.5,53.5C 248.167,53.5 247.833,53.5 247.5,53.5C 244.833,53.5 242.167,53.5 239.5,53.5C 238.596,54.209 238.263,55.209 238.5,56.5C 240.167,56.5 241.833,56.5 243.5,56.5C 243.5,62.1667 243.5,67.8333 243.5,73.5C 243.5,75.8333 243.5,78.1667 243.5,80.5C 241.833,80.5 240.167,80.5 238.5,80.5C 239.568,79.5655 240.901,79.2322 242.5,79.5C 242.5,72.1667 242.5,64.8333 242.5,57.5C 240.833,57.5 239.167,57.5 237.5,57.5C 237.5,55.8333 237.5,54.1667 237.5,52.5C 241.167,52.5 244.833,52.5 248.5,52.5 Z"/></g>
<g><path style="opacity:1" fill="#ffffff" d="M 239.5,53.5 C 240.552,55.256 242.219,55.9227 244.5,55.5C 244.334,59.8461 244.501,64.1794 245,68.5C 247.029,63.7685 247.863,58.7685 247.5,53.5C 247.833,53.5 248.167,53.5 248.5,53.5C 248.5,62.5 248.5,71.5 248.5,80.5C 247.806,77.5787 246.973,74.5787 246,71.5C 245.292,72.3805 244.458,73.0472 243.5,73.5C 243.5,67.8333 243.5,62.1667 243.5,56.5C 241.833,56.5 240.167,56.5 238.5,56.5C 238.263,55.209 238.596,54.209 239.5,53.5 Z"/></g>
<g><path style="opacity:1" fill="#ffffff" d="M 239.5,53.5 C 242.167,53.5 244.833,53.5 247.5,53.5C 247.863,58.7685 247.029,63.7685 245,68.5C 244.501,64.1794 244.334,59.8461 244.5,55.5C 242.219,55.9227 240.552,55.256 239.5,53.5 Z"/></g>
<g><path style="opacity:0.839" fill="#ffffff" d="M 303.5,63.5 C 302.5,64.8333 301.5,66.1667 300.5,67.5C 299.833,67.8333 299.167,68.1667 298.5,68.5C 299.167,65.8333 300.833,64.1667 303.5,63.5 Z"/></g>
<g><path style="opacity:1" fill="#ffffff" d="M 344.5,62.5 C 343.942,63.7899 342.942,64.6232 341.5,65C 343.32,65.2004 344.653,66.0337 345.5,67.5C 342.487,67.1072 339.82,67.7739 337.5,69.5C 337.167,69.5 336.833,69.5 336.5,69.5C 336.443,68.391 336.11,67.391 335.5,66.5C 337.144,66.1898 338.144,65.1898 338.5,63.5C 340.435,62.8505 342.435,62.5172 344.5,62.5 Z"/></g>
<g><path style="opacity:0.82" fill="#ffffff" d="M 176.5,63.5 C 176.5,63.8333 176.5,64.1667 176.5,64.5C 174.833,65.8333 173.167,67.1667 171.5,68.5C 172.167,65.8333 173.833,64.1667 176.5,63.5 Z"/></g>
<g><path style="opacity:0.604" fill="#ffffff" d="M 186.5,67.5 C 184.167,66.1667 181.833,66.1667 179.5,67.5C 181.75,64.9659 184.084,64.9659 186.5,67.5 Z"/></g>
<g><path style="opacity:1" fill="#ffffff" d="M 216.5,61.5 C 218.302,62.4582 220.302,63.1249 222.5,63.5C 224.046,65.8825 224.713,68.5491 224.5,71.5C 223.504,71.5858 222.671,71.2524 222,70.5C 221.5,72.5 221,74.5 220.5,76.5C 220.253,77.7133 219.586,78.38 218.5,78.5C 218.414,77.5041 218.748,76.6708 219.5,76C 216.518,75.502 213.518,75.3354 210.5,75.5C 213.287,74.5233 216.287,74.19 219.5,74.5C 219.5,73.5 219.5,72.5 219.5,71.5C 219.5,71.1667 219.5,70.8333 219.5,70.5C 219.443,69.391 219.11,68.391 218.5,67.5C 217.508,65.9735 216.008,65.3068 214,65.5C 211.992,65.3068 210.492,65.9735 209.5,67.5C 209.167,67.5 208.833,67.5 208.5,67.5C 205.664,67.1627 204.998,65.8293 206.5,63.5C 206.918,62.7784 207.584,62.2784 208.5,62C 211.146,61.5026 213.813,61.3359 216.5,61.5 Z"/></g>
<g><path style="opacity:0.596" fill="#ffffff" d="M 218.5,67.5 C 215.654,66.9054 212.654,66.9054 209.5,67.5C 210.492,65.9735 211.992,65.3068 214,65.5C 216.008,65.3068 217.508,65.9735 218.5,67.5 Z"/></g>
<g><path style="opacity:0.6" fill="#ffffff" d="M 311.5,65.5 C 312.167,66.1667 312.833,66.8333 313.5,67.5C 310.938,66.6285 308.272,66.6285 305.5,67.5C 307.102,65.9261 309.102,65.2594 311.5,65.5 Z"/></g>
<g><path style="opacity:0.596" fill="#ffffff" d="M 331.5,62.5 C 332.097,61.8614 332.93,61.528 334,61.5C 335.607,62.0735 337.107,62.7402 338.5,63.5C 338.144,65.1898 337.144,66.1898 335.5,66.5C 335.5,65.5 335.5,64.5 335.5,63.5C 334.432,62.5655 333.099,62.2322 331.5,62.5 Z"/></g>
<g><path style="opacity:1" fill="#ffffff" d="M 344.5,62.5 C 345.833,62.5 347.167,62.5 348.5,62.5C 348.833,63.5 349.5,64.1667 350.5,64.5C 350.5,71.1667 350.5,77.8333 350.5,84.5C 349.5,84.5 348.5,84.5 347.5,84.5C 347.821,79.3054 347.487,74.3054 346.5,69.5C 345.662,69.1583 345.328,68.4916 345.5,67.5C 344.653,66.0337 343.32,65.2004 341.5,65C 342.942,64.6232 343.942,63.7899 344.5,62.5 Z"/></g>
<g><path style="opacity:0.608" fill="#ffffff" d="M 407.5,65.5 C 407.833,66.1667 408.167,66.8333 408.5,67.5C 405.326,67.0025 401.993,67.0025 398.5,67.5C 401.123,65.7345 404.123,65.0679 407.5,65.5 Z"/></g>
<g><path style="opacity:0.016" fill="#ffffff" d="M 206.5,63.5 C 204.998,65.8293 205.664,67.1627 208.5,67.5C 207.516,70.0704 206.349,70.0704 205,67.5C 204.156,65.5372 204.656,64.2039 206.5,63.5 Z"/></g>
<g><path style="opacity:1" fill="#ffffff" d="M 313.5,63.5 C 315.216,63.6287 316.883,63.962 318.5,64.5C 318.66,66.153 319.326,67.4863 320.5,68.5C 320.5,69.8333 320.5,71.1667 320.5,72.5C 318.585,72.7845 316.919,72.4511 315.5,71.5C 316.833,70.8333 316.833,70.1667 315.5,69.5C 314.5,69.1667 313.833,68.5 313.5,67.5C 312.833,66.8333 312.167,66.1667 311.5,65.5C 312.239,65.631 312.906,65.4643 313.5,65C 312.262,64.31 312.262,63.81 313.5,63.5 Z"/></g>
<g><path style="opacity:0.286" fill="#ffffff" d="M 318.5,64.5 C 320.104,65.287 320.771,66.6203 320.5,68.5C 319.326,67.4863 318.66,66.153 318.5,64.5 Z"/></g>
<g><path style="opacity:1" fill="#ffffff" d="M 335.5,63.5 C 335.5,64.5 335.5,65.5 335.5,66.5C 336.11,67.391 336.443,68.391 336.5,69.5C 335.555,74.4053 335.221,79.4053 335.5,84.5C 334.5,84.5 333.5,84.5 332.5,84.5C 332.5,77.5 332.5,70.5 332.5,63.5C 333.5,63.5 334.5,63.5 335.5,63.5 Z"/></g>
<g><path style="opacity:0.996" fill="#ffffff" d="M 371.5,61.5 C 372.833,61.5 374.167,61.5 375.5,61.5C 376.997,62.3058 378.664,62.9724 380.5,63.5C 380.833,64.1667 381.167,64.8333 381.5,65.5C 381.253,66.7133 380.586,67.38 379.5,67.5C 375.642,66.0551 371.975,66.3884 368.5,68.5C 370.304,69.7681 372.304,70.4348 374.5,70.5C 376.028,71.3092 377.694,71.9759 379.5,72.5C 379.189,73.4778 378.522,74.1445 377.5,74.5C 374.224,72.4837 370.724,71.1504 367,70.5C 366.283,71.0442 365.783,71.7109 365.5,72.5C 364.053,71.8658 363.387,70.6991 363.5,69C 363.773,67.4672 364.106,65.9672 364.5,64.5C 366.824,63.3443 369.157,62.3443 371.5,61.5 Z"/></g>
<g><path style="opacity:0.522" fill="#ffffff" d="M 145.5,67.5 C 146.209,66.596 147.209,66.2627 148.5,66.5C 148.5,72.5 148.5,78.5 148.5,84.5C 149.833,84.5 151.167,84.5 152.5,84.5C 153.167,78.8333 153.833,73.1667 154.5,67.5C 154.5,73.5 154.5,79.5 154.5,85.5C 152.167,85.5 149.833,85.5 147.5,85.5C 148.12,79.0738 147.453,73.0738 145.5,67.5 Z"/></g>
<g><path style="opacity:0.58" fill="#ffffff" d="M 395.5,67.5 C 396.5,67.5 397.5,67.5 398.5,67.5C 397.5,70.1667 396.5,70.1667 395.5,67.5 Z"/></g>
<g><path style="opacity:0.992" fill="#ffffff" d="M 144.5,63.5 C 144.5,63.8333 144.5,64.1667 144.5,64.5C 143.314,65.9613 143.314,67.2946 144.5,68.5C 144.5,73.5 144.5,78.5 144.5,83.5C 143.167,83.5 141.833,83.5 140.5,83.5C 140.5,76.8333 140.5,70.1667 140.5,63.5C 141.833,63.5 143.167,63.5 144.5,63.5 Z"/></g>
<g><path style="opacity:1" fill="#ffffff" d="M 154.5,66.5 C 152.547,72.0738 151.88,78.0738 152.5,84.5C 151.167,84.5 149.833,84.5 148.5,84.5C 148.5,78.5 148.5,72.5 148.5,66.5C 146.372,65.7195 146.205,64.7195 148,63.5C 150.842,64.9315 153.676,65.4315 156.5,65C 155.584,65.2784 154.918,65.7784 154.5,66.5 Z"/></g>
<g><path style="opacity:0.273" fill="#ffffff" d="M 162.5,65.5 C 163.491,71.979 163.824,78.6457 163.5,85.5C 161.167,85.5 158.833,85.5 156.5,85.5C 157.12,79.0738 156.453,73.0738 154.5,67.5C 154.5,67.1667 154.5,66.8333 154.5,66.5C 155.5,66.5 156.5,66.5 157.5,66.5C 157.5,72.5 157.5,78.5 157.5,84.5C 159.167,84.5 160.833,84.5 162.5,84.5C 162.5,78.1667 162.5,71.8333 162.5,65.5 Z"/></g>
<g><path style="opacity:1" fill="#ffffff" d="M 176.5,64.5 C 176.815,66.9309 176.815,69.2642 176.5,71.5C 175.321,73.5065 175.821,73.8398 178,72.5C 178.995,73.0659 179.828,73.7326 180.5,74.5C 179.167,74.5 177.833,74.5 176.5,74.5C 176.263,75.791 176.596,76.791 177.5,77.5C 177.738,79.4044 178.738,80.7377 180.5,81.5C 179.89,82.391 179.557,83.391 179.5,84.5C 178.833,84.5 178.167,84.5 177.5,84.5C 176.71,83.5987 175.71,82.9321 174.5,82.5C 173.974,80.7697 172.974,79.4363 171.5,78.5C 170.167,75.1667 170.167,71.8333 171.5,68.5C 173.167,67.1667 174.833,65.8333 176.5,64.5 Z"/></g>
<g><path style="opacity:0.952" fill="#ffffff" d="M 144.5,63.5 C 143.167,63.5 141.833,63.5 140.5,63.5C 140.5,70.1667 140.5,76.8333 140.5,83.5C 141.833,83.5 143.167,83.5 144.5,83.5C 143.081,84.4511 141.415,84.7845 139.5,84.5C 139.5,77.1667 139.5,69.8333 139.5,62.5C 141.415,62.2155 143.081,62.5489 144.5,63.5 Z"/></g>
<g><path style="opacity:0.217" fill="#ffffff" d="M 147.5,61.5 C 146.833,62.8333 145.833,63.8333 144.5,64.5C 144.5,64.1667 144.5,63.8333 144.5,63.5C 143.081,62.5489 141.415,62.2155 139.5,62.5C 139.5,69.8333 139.5,77.1667 139.5,84.5C 141.415,84.7845 143.081,84.4511 144.5,83.5C 144.5,78.5 144.5,73.5 144.5,68.5C 144.5,67.8333 144.833,67.5 145.5,67.5C 145.5,73.5 145.5,79.5 145.5,85.5C 143.167,85.5 140.833,85.5 138.5,85.5C 138.5,77.5 138.5,69.5 138.5,61.5C 141.5,61.5 144.5,61.5 147.5,61.5 Z"/></g>
<g><path style="opacity:0.698" fill="#ffffff" d="M 154.5,66.5 C 154.5,66.8333 154.5,67.1667 154.5,67.5C 153.833,73.1667 153.167,78.8333 152.5,84.5C 151.88,78.0738 152.547,72.0738 154.5,66.5 Z"/></g>
<g><path style="opacity:0.753" fill="#ffffff" d="M 219.5,70.5 C 219.5,70.8333 219.5,71.1667 219.5,71.5C 214.151,71.0474 209.151,72.0474 204.5,74.5C 204.937,72.9256 205.937,71.7589 207.5,71C 211.486,70.5012 215.486,70.3345 219.5,70.5 Z"/></g>
<g><path style="opacity:1" fill="#ffffff" d="M 313.5,63.5 C 312.262,63.81 312.262,64.31 313.5,65C 312.906,65.4643 312.239,65.631 311.5,65.5C 309.102,65.2594 307.102,65.9261 305.5,67.5C 305.5,68.1667 305.167,68.5 304.5,68.5C 303.596,69.209 303.263,70.209 303.5,71.5C 307.5,71.5 311.5,71.5 315.5,71.5C 316.919,72.4511 318.585,72.7845 320.5,72.5C 321.338,72.8417 321.672,73.5084 321.5,74.5C 315.463,74.8293 309.463,74.4959 303.5,73.5C 301.022,72.2776 300.022,70.2776 300.5,67.5C 301.5,66.1667 302.5,64.8333 303.5,63.5C 306.936,62.2185 310.269,62.2185 313.5,63.5 Z"/></g>
<g><path style="opacity:0.753" fill="#ffffff" d="M 304.5,68.5 C 305.871,69.7868 307.705,70.4535 310,70.5C 312.033,70.4944 313.866,70.1611 315.5,69.5C 316.833,70.1667 316.833,70.8333 315.5,71.5C 311.5,71.5 307.5,71.5 303.5,71.5C 303.263,70.209 303.596,69.209 304.5,68.5 Z"/></g>
<g><path style="opacity:0.937" fill="#ffffff" d="M 331.5,62.5 C 333.099,62.2322 334.432,62.5655 335.5,63.5C 334.5,63.5 333.5,63.5 332.5,63.5C 332.5,70.5 332.5,77.5 332.5,84.5C 332.167,84.5 331.833,84.5 331.5,84.5C 330.703,77.2977 330.703,69.9643 331.5,62.5 Z"/></g>
<g><path style="opacity:0.176" fill="#ffffff" d="M 374.5,70.5 C 376.527,70.3379 378.527,70.5045 380.5,71C 381.756,71.4169 382.423,72.2502 382.5,73.5C 381.609,72.8902 380.609,72.5569 379.5,72.5C 377.694,71.9759 376.028,71.3092 374.5,70.5 Z"/></g>
<g><path style="opacity:1" fill="#ffffff" d="M 191.5,66.5 C 193.655,68.6174 194.655,71.284 194.5,74.5C 189.833,74.5 185.167,74.5 180.5,74.5C 179.828,73.7326 178.995,73.0659 178,72.5C 175.821,73.8398 175.321,73.5065 176.5,71.5C 180.884,71.8256 185.217,71.4922 189.5,70.5C 189.376,69.8933 189.043,69.56 188.5,69.5C 188.121,66.4331 189.121,65.4331 191.5,66.5 Z"/></g>
<g><path style="opacity:0.293" fill="#ffffff" d="M 191.5,64.5 C 195.345,67.4491 196.345,71.1158 194.5,75.5C 194.5,75.1667 194.5,74.8333 194.5,74.5C 194.655,71.284 193.655,68.6174 191.5,66.5C 191.5,65.8333 191.5,65.1667 191.5,64.5 Z"/></g>
<g><path style="opacity:0.561" fill="#ffffff" d="M 298.5,68.5 C 298.395,72.5483 298.728,76.5483 299.5,80.5C 297.983,78.5379 297.316,76.2046 297.5,73.5C 297.507,71.6307 297.84,69.964 298.5,68.5 Z"/></g>
<g><path style="opacity:0.016" fill="#ffffff" d="M 364.5,64.5 C 364.106,65.9672 363.773,67.4672 363.5,69C 363.387,70.6991 364.053,71.8658 365.5,72.5C 365.833,73.1667 366.167,73.8333 366.5,74.5C 364.983,74.4894 363.816,73.8228 363,72.5C 362.333,70.1667 362.333,67.8333 363,65.5C 363.383,64.944 363.883,64.6107 364.5,64.5 Z"/></g>
<g><path style="opacity:0.999" fill="#ffffff" d="M 408.5,71.5 C 406.412,73.0195 404.078,74.0195 401.5,74.5C 398.527,74.9651 397.36,76.6318 398,79.5C 400.887,81.839 404.054,82.1724 407.5,80.5C 408.167,80.8333 408.833,81.1667 409.5,81.5C 409.5,81.8333 409.5,82.1667 409.5,82.5C 408.5,82.8333 407.833,83.5 407.5,84.5C 407.167,84.5 406.833,84.5 406.5,84.5C 403.148,85.7074 399.814,85.7074 396.5,84.5C 396.167,83.5 395.5,82.8333 394.5,82.5C 393.167,79.8333 393.167,77.1667 394.5,74.5C 398.815,72.1029 403.482,71.1029 408.5,71.5 Z"/></g>
<g><path style="opacity:1" fill="#ffffff" d="M 410.5,63.5 C 411.167,63.5 411.833,63.5 412.5,63.5C 413.11,64.391 413.443,65.391 413.5,66.5C 412.5,66.5 411.5,66.5 410.5,66.5C 410.321,68.9541 410.987,71.1208 412.5,73C 410.809,75.5706 409.809,78.404 409.5,81.5C 408.833,81.1667 408.167,80.8333 407.5,80.5C 407.833,79.8333 408.167,79.1667 408.5,78.5C 408.557,77.391 408.89,76.391 409.5,75.5C 407.052,74.5269 404.385,74.1936 401.5,74.5C 404.078,74.0195 406.412,73.0195 408.5,71.5C 409.167,71.5 409.5,71.1667 409.5,70.5C 409.443,69.391 409.11,68.391 408.5,67.5C 408.167,66.8333 407.833,66.1667 407.5,65.5C 409.027,65.573 410.027,64.9063 410.5,63.5 Z"/></g>
<g><path style="opacity:0.49" fill="#ffffff" d="M 222.5,63.5 C 223.458,63.9528 224.292,64.6195 225,65.5C 225.5,72.1583 225.666,78.825 225.5,85.5C 223.265,85.7947 221.265,85.4614 219.5,84.5C 221.167,84.5 222.833,84.5 224.5,84.5C 224.5,80.1667 224.5,75.8333 224.5,71.5C 224.713,68.5491 224.046,65.8825 222.5,63.5 Z"/></g>
<g><path style="opacity:0.992" fill="#ffffff" d="M 409.5,70.5 C 409.5,71.1667 409.167,71.5 408.5,71.5C 403.482,71.1029 398.815,72.1029 394.5,74.5C 394.937,72.9256 395.937,71.7589 397.5,71C 401.486,70.5012 405.486,70.3345 409.5,70.5 Z"/></g>
<g><path style="opacity:0.998" fill="#ffffff" d="M 300.5,67.5 C 300.022,70.2776 301.022,72.2776 303.5,73.5C 309.463,74.4959 315.463,74.8293 321.5,74.5C 321.5,74.8333 321.5,75.1667 321.5,75.5C 315.833,75.5 310.167,75.5 304.5,75.5C 302.786,79.1656 304.12,81.1656 308.5,81.5C 308.833,82.8333 309.167,84.1667 309.5,85.5C 308.167,85.5 306.833,85.5 305.5,85.5C 304.564,84.0256 303.23,83.0256 301.5,82.5C 301.167,81.5 300.5,80.8333 299.5,80.5C 298.728,76.5483 298.395,72.5483 298.5,68.5C 299.167,68.1667 299.833,67.8333 300.5,67.5 Z"/></g>
<g><path style="opacity:0.247" fill="#ffffff" d="M 320.5,68.5 C 322.534,70.6548 322.867,72.9882 321.5,75.5C 321.5,75.1667 321.5,74.8333 321.5,74.5C 321.672,73.5084 321.338,72.8417 320.5,72.5C 320.5,71.1667 320.5,69.8333 320.5,68.5 Z"/></g>
<g><path style="opacity:1" fill="#ffffff" d="M 413.5,66.5 C 413.833,66.5 414.167,66.5 414.5,66.5C 414.5,66.8333 414.5,67.1667 414.5,67.5C 414.5,73.1667 414.5,78.8333 414.5,84.5C 412.446,84.6347 410.779,83.968 409.5,82.5C 409.5,82.1667 409.5,81.8333 409.5,81.5C 409.809,78.404 410.809,75.5706 412.5,73C 410.987,71.1208 410.321,68.9541 410.5,66.5C 411.5,66.5 412.5,66.5 413.5,66.5 Z"/></g>
<g><path style="opacity:1" fill="#ffffff" d="M 444.5,84.5 C 439.5,84.5 434.5,84.5 429.5,84.5C 429.5,83.1667 429.5,81.8333 429.5,80.5C 431.167,80.5 432.833,80.5 434.5,80.5C 434.819,75.6367 434.486,70.97 433.5,66.5C 432.167,66.5 430.833,66.5 429.5,66.5C 429.5,65.1667 429.5,63.8333 429.5,62.5C 432.5,62.5 435.5,62.5 438.5,62.5C 438.5,68.5 438.5,74.5 438.5,80.5C 440.5,80.5 442.5,80.5 444.5,80.5C 444.5,81.8333 444.5,83.1667 444.5,84.5 Z"/></g>
<g><path style="opacity:0.696" fill="#ffffff" d="M 180.5,74.5 C 185.167,74.5 189.833,74.5 194.5,74.5C 194.5,74.8333 194.5,75.1667 194.5,75.5C 188.402,74.8833 182.735,75.55 177.5,77.5C 176.596,76.791 176.263,75.791 176.5,74.5C 177.833,74.5 179.167,74.5 180.5,74.5 Z"/></g>
<g><path style="opacity:0.996" fill="#ffffff" d="M 224.5,71.5 C 224.5,75.8333 224.5,80.1667 224.5,84.5C 222.833,84.5 221.167,84.5 219.5,84.5C 219.214,82.0673 218.548,82.0673 217.5,84.5C 217.167,84.5 216.833,84.5 216.5,84.5C 215.5,84.5 214.5,84.5 213.5,84.5C 212.325,84.719 211.325,84.3857 210.5,83.5C 209.45,82.5712 209.45,81.9046 210.5,81.5C 213.716,81.6545 216.383,80.6545 218.5,78.5C 219.586,78.38 220.253,77.7133 220.5,76.5C 221,74.5 221.5,72.5 222,70.5C 222.671,71.2524 223.504,71.5858 224.5,71.5 Z"/></g>
<g><path style="opacity:0.996" fill="#ffffff" d="M 379.5,72.5 C 380.609,72.5569 381.609,72.8902 382.5,73.5C 382.5,74.1667 382.5,74.8333 382.5,75.5C 382.027,76.9063 381.027,77.573 379.5,77.5C 378.833,77.5 378.167,77.5 377.5,77.5C 374.314,75.1257 370.647,74.1257 366.5,74.5C 366.167,73.8333 365.833,73.1667 365.5,72.5C 365.783,71.7109 366.283,71.0442 367,70.5C 370.724,71.1504 374.224,72.4837 377.5,74.5C 378.522,74.1445 379.189,73.4778 379.5,72.5 Z"/></g>
<g><path style="opacity:0.027" fill="#ffffff" d="M 394.5,74.5 C 393.167,77.1667 393.167,79.8333 394.5,82.5C 393.252,81.6661 392.585,80.3328 392.5,78.5C 392.585,76.6672 393.252,75.3339 394.5,74.5 Z"/></g>
<g><path style="opacity:0.459" fill="#ffffff" d="M 366.5,74.5 C 370.647,74.1257 374.314,75.1257 377.5,77.5C 373.521,77.2576 369.854,76.2576 366.5,74.5 Z"/></g>
<g><path style="opacity:0.184" fill="#ffffff" d="M 382.5,73.5 C 383.117,73.6107 383.617,73.944 384,74.5C 384.167,75.8333 384.333,77.1667 384.5,78.5C 384.415,80.3328 383.748,81.6661 382.5,82.5C 383.756,80.059 383.756,77.7257 382.5,75.5C 382.5,74.8333 382.5,74.1667 382.5,73.5 Z"/></g>
<g><path style="opacity:0.192" fill="#ffffff" d="M 401.5,74.5 C 404.385,74.1936 407.052,74.5269 409.5,75.5C 405.456,74.9579 401.789,75.7912 398.5,78C 401.575,80.6864 404.908,80.8531 408.5,78.5C 408.167,79.1667 407.833,79.8333 407.5,80.5C 404.054,82.1724 400.887,81.839 398,79.5C 397.36,76.6318 398.527,74.9651 401.5,74.5 Z"/></g>
<g><path style="opacity:1" fill="#ffffff" d="M 147.5,61.5 C 148.5,61.5 149.5,61.5 150.5,61.5C 150.833,62.5 151.5,63.1667 152.5,63.5C 152.833,63.5 153.167,63.5 153.5,63.5C 157.196,61.7202 160.196,62.3869 162.5,65.5C 162.5,71.8333 162.5,78.1667 162.5,84.5C 160.833,84.5 159.167,84.5 157.5,84.5C 157.5,78.5 157.5,72.5 157.5,66.5C 156.5,66.5 155.5,66.5 154.5,66.5C 154.918,65.7784 155.584,65.2784 156.5,65C 153.676,65.4315 150.842,64.9315 148,63.5C 146.205,64.7195 146.372,65.7195 148.5,66.5C 147.209,66.2627 146.209,66.596 145.5,67.5C 144.833,67.5 144.5,67.8333 144.5,68.5C 143.314,67.2946 143.314,65.9613 144.5,64.5C 145.833,63.8333 146.833,62.8333 147.5,61.5 Z"/></g>
<g><path style="opacity:0.004" fill="#ffffff" d="M 210.5,75.5 C 210.5,76.8333 209.833,77.5 208.5,77.5C 208.833,76.5 209.5,75.8333 210.5,75.5 Z"/></g>
<g><path style="opacity:0.553" fill="#ffffff" d="M 336.5,69.5 C 336.833,69.5 337.167,69.5 337.5,69.5C 336.725,74.7968 336.392,80.1301 336.5,85.5C 334.585,85.7845 332.919,85.4511 331.5,84.5C 331.833,84.5 332.167,84.5 332.5,84.5C 333.5,84.5 334.5,84.5 335.5,84.5C 335.221,79.4053 335.555,74.4053 336.5,69.5 Z"/></g>
<g><path style="opacity:0.812" fill="#ffffff" d="M 63.5,80.5 C 65.2683,76.5891 63.935,74.9224 59.5,75.5C 59.5,77.1667 59.5,78.8333 59.5,80.5C 57.324,79.2867 56.9907,77.62 58.5,75.5C 60.6948,74.2309 62.8615,74.2309 65,75.5C 65.1667,76.3333 65.3333,77.1667 65.5,78C 65.3158,79.3756 64.6491,80.2089 63.5,80.5 Z"/></g>
<g><path style="opacity:0.29" fill="#ffffff" d="M 204.5,74.5 C 203.167,77.1667 203.167,79.8333 204.5,82.5C 203.252,81.6661 202.585,80.3328 202.5,78.5C 202.585,76.6672 203.252,75.3339 204.5,74.5 Z"/></g>
<g><path style="opacity:0.031" fill="#ffffff" d="M 365.5,78.5 C 364.222,78.7822 363.222,79.4489 362.5,80.5C 362.5,79.5 362.5,78.5 362.5,77.5C 363.791,77.2627 364.791,77.596 365.5,78.5 Z"/></g>
<g><path style="opacity:0.99" fill="#ffffff" d="M 63.5,80.5 C 62.1667,81.8333 60.8333,81.8333 59.5,80.5C 59.5,78.8333 59.5,77.1667 59.5,75.5C 63.935,74.9224 65.2683,76.5891 63.5,80.5 Z"/></g>
<g><path style="opacity:0.144" fill="#ffffff" d="M 414.5,67.5 C 415.49,73.31 415.823,79.31 415.5,85.5C 412.763,85.5987 410.096,85.2653 407.5,84.5C 407.833,83.5 408.5,82.8333 409.5,82.5C 410.779,83.968 412.446,84.6347 414.5,84.5C 414.5,78.8333 414.5,73.1667 414.5,67.5 Z"/></g>
<g><path style="opacity:0.999" fill="#ffffff" d="M 219.5,71.5 C 219.5,72.5 219.5,73.5 219.5,74.5C 216.287,74.19 213.287,74.5233 210.5,75.5C 209.5,75.8333 208.833,76.5 208.5,77.5C 208.5,77.8333 208.5,78.1667 208.5,78.5C 208.782,79.7777 209.449,80.7777 210.5,81.5C 209.45,81.9046 209.45,82.5712 210.5,83.5C 211.325,84.3857 212.325,84.719 213.5,84.5C 211.312,85.6227 208.979,85.6227 206.5,84.5C 205.167,84.5 204.5,83.8333 204.5,82.5C 203.167,79.8333 203.167,77.1667 204.5,74.5C 209.151,72.0474 214.151,71.0474 219.5,71.5 Z"/></g>
<g><path style="opacity:0.184" fill="#ffffff" d="M 171.5,78.5 C 172.974,79.4363 173.974,80.7697 174.5,82.5C 172.554,81.9653 171.554,80.632 171.5,78.5 Z"/></g>
<g><path style="opacity:0.412" fill="#ffffff" d="M 177.5,77.5 C 179.082,78.8758 180.915,79.8758 183,80.5C 185.883,79.4233 188.717,78.59 191.5,78C 195.787,81.0578 195.453,83.2245 190.5,84.5C 193.24,82.415 193.073,80.7484 190,79.5C 186.974,80.8718 183.807,81.5385 180.5,81.5C 178.738,80.7377 177.738,79.4044 177.5,77.5 Z"/></g>
<g><path style="opacity:0.357" fill="#ffffff" d="M 208.5,78.5 C 211.703,80.6195 215.037,80.6195 218.5,78.5C 216.383,80.6545 213.716,81.6545 210.5,81.5C 209.449,80.7777 208.782,79.7777 208.5,78.5 Z"/></g>
<g><path style="opacity:0.997" fill="#ffffff" d="M 279.5,53.5 C 280.493,62.3178 280.827,71.3178 280.5,79.5C 282.167,79.5 283.833,79.5 285.5,79.5C 285.5,81.8333 285.5,83.1667 285.5,84.5C 280.5,84.5 275.5,84.5 270.5,84.5C 270.5,83.1667 270.5,81.8333 270.5,80.5C 272.099,80.7678 273.432,80.4345 274.5,79.5C 274.5,72.1667 274.5,64.8333 274.5,57.5C 275.482,60.9619 275.815,64.6286 275.5,68.5C 276.5,68.5 277.5,68.5 278.5,68.5C 279.329,63.547 279.663,58.547 279.5,53.5 Z"/></g>
<g><path style="opacity:0.998" fill="#ffffff" d="M 276.5,70.5 C 277.117,70.6107 277.617,70.944 278,71.5C 278.667,75.1667 278.667,78.8333 278,82.5C 276.186,83.7596 274.353,83.7596 272.5,82.5C 273.325,81.6143 274.325,81.281 275.5,81.5C 275.244,77.7307 275.577,74.0641 276.5,70.5 Z"/></g>
<g><path style="opacity:0.809" fill="#ffffff" d="M 350.5,64.5 C 351.268,65.2625 351.768,66.2625 352,67.5C 352.499,73.4908 352.666,79.4908 352.5,85.5C 350.5,85.5 348.5,85.5 346.5,85.5C 346.5,80.1667 346.5,74.8333 346.5,69.5C 347.487,74.3054 347.821,79.3054 347.5,84.5C 348.5,84.5 349.5,84.5 350.5,84.5C 350.5,77.8333 350.5,71.1667 350.5,64.5 Z"/></g>
<g><path style="opacity:0.349" fill="#ffffff" d="M 377.5,77.5 C 378.167,77.5 378.833,77.5 379.5,77.5C 379.426,79.4109 378.426,80.5776 376.5,81C 373.137,81.9274 370.137,81.4274 367.5,79.5C 369.547,79.5111 371.547,79.8444 373.5,80.5C 375.653,80.4387 376.986,79.4387 377.5,77.5 Z"/></g>
<g><path style="opacity:1" fill="#ffffff" d="M 248.5,80.5 C 250.167,80.5 251.833,80.5 253.5,80.5C 253.5,81.8333 253.5,83.1667 253.5,84.5C 248.5,84.5 243.5,84.5 238.5,84.5C 238.5,83.1667 238.5,81.8333 238.5,80.5C 240.167,80.5 241.833,80.5 243.5,80.5C 243.5,78.1667 243.5,75.8333 243.5,73.5C 244.458,73.0472 245.292,72.3805 246,71.5C 246.973,74.5787 247.806,77.5787 248.5,80.5 Z"/></g>
<g><path style="opacity:0.012" fill="#ffffff" d="M 299.5,80.5 C 300.5,80.8333 301.167,81.5 301.5,82.5C 300.167,82.5 299.5,81.8333 299.5,80.5 Z"/></g>
<g><path style="opacity:0.369" fill="#ffffff" d="M 362.5,80.5 C 362.369,81.2389 362.536,81.9056 363,82.5C 364.302,83.0848 365.469,83.7515 366.5,84.5C 362.483,85.1614 361.149,83.8281 362.5,80.5 Z"/></g>
<g><path style="opacity:0.988" fill="#ffffff" d="M 382.5,75.5 C 383.756,77.7257 383.756,80.059 382.5,82.5C 381.5,82.8333 380.833,83.5 380.5,84.5C 375.819,85.7624 371.152,85.7624 366.5,84.5C 365.469,83.7515 364.302,83.0848 363,82.5C 362.536,81.9056 362.369,81.2389 362.5,80.5C 363.222,79.4489 364.222,78.7822 365.5,78.5C 366.492,78.3284 367.158,78.6618 367.5,79.5C 370.137,81.4274 373.137,81.9274 376.5,81C 378.426,80.5776 379.426,79.4109 379.5,77.5C 381.027,77.573 382.027,76.9063 382.5,75.5 Z"/></g>
<g><path style="opacity:0.618" fill="#ffffff" d="M 51.5,80.5 C 46.0756,78.7598 44.0756,80.5932 45.5,86C 47.4727,86.4955 49.4727,86.6621 51.5,86.5C 49.2009,89.0021 46.7009,89.0021 44,86.5C 42.3317,80.5069 44.4983,78.0069 50.5,79C 51.056,79.3826 51.3893,79.8826 51.5,80.5 Z"/></g>
<g><path style="opacity:1" fill="#ffffff" d="M 51.5,80.5 C 54.1667,82.5 54.1667,84.5 51.5,86.5C 49.4727,86.6621 47.4727,86.4955 45.5,86C 44.0756,80.5932 46.0756,78.7598 51.5,80.5 Z"/></g>
<g><path style="opacity:0.999" fill="#ffffff" d="M 190.5,84.5 C 186.684,85.6203 183.017,85.6203 179.5,84.5C 179.557,83.391 179.89,82.391 180.5,81.5C 183.807,81.5385 186.974,80.8718 190,79.5C 193.073,80.7484 193.24,82.415 190.5,84.5 Z"/></g>
<g><path style="opacity:0.131" fill="#ffffff" d="M 274.5,79.5 C 273.432,80.4345 272.099,80.7678 270.5,80.5C 270.5,81.8333 270.5,83.1667 270.5,84.5C 275.5,84.5 280.5,84.5 285.5,84.5C 285.5,84.8333 285.5,85.1667 285.5,85.5C 280.167,85.5 274.833,85.5 269.5,85.5C 269.5,83.5 269.5,81.5 269.5,79.5C 271.167,79.5 272.833,79.5 274.5,79.5 Z"/></g>
<g><path style="opacity:0.094" fill="#ffffff" d="M 304.5,75.5 C 304.679,78.7705 306.512,80.4371 310,80.5C 312.883,79.4233 315.717,78.59 318.5,78C 321.402,80.8642 321.068,83.0308 317.5,84.5C 319.248,83.2106 319.581,81.7106 318.5,80C 315.206,80.365 311.873,80.865 308.5,81.5C 304.12,81.1656 302.786,79.1656 304.5,75.5 Z"/></g>
<g><path style="opacity:0.047" fill="#ffffff" d="M 174.5,82.5 C 175.71,82.9321 176.71,83.5987 177.5,84.5C 175.821,84.7148 174.821,84.0481 174.5,82.5 Z"/></g>
<g><path style="opacity:0.016" fill="#fef1f1" d="M 219.5,84.5 C 218.833,84.5 218.167,84.5 217.5,84.5C 218.548,82.0673 219.214,82.0673 219.5,84.5 Z"/></g>
<g><path style="opacity:0.053" fill="#fef2f3" d="M 301.5,82.5 C 303.23,83.0256 304.564,84.0256 305.5,85.5C 303.368,85.4456 302.035,84.4456 301.5,82.5 Z"/></g>
<g><path style="opacity:1" fill="#ffffff" d="M 317.5,84.5 C 314.873,85.0916 312.206,85.4249 309.5,85.5C 309.167,84.1667 308.833,82.8333 308.5,81.5C 311.873,80.865 315.206,80.365 318.5,80C 319.581,81.7106 319.248,83.2106 317.5,84.5 Z"/></g>
<g><path style="opacity:0.059" fill="#ffffff" d="M 382.5,82.5 C 382.5,83.8333 381.833,84.5 380.5,84.5C 380.833,83.5 381.5,82.8333 382.5,82.5 Z"/></g>
<g><path style="opacity:0.031" fill="#ffffff" d="M 394.5,82.5 C 395.5,82.8333 396.167,83.5 396.5,84.5C 395.167,84.5 394.5,83.8333 394.5,82.5 Z"/></g>
<g><path style="opacity:0.46" fill="#ffffff" d="M 238.5,80.5 C 238.5,81.8333 238.5,83.1667 238.5,84.5C 243.5,84.5 248.5,84.5 253.5,84.5C 253.5,84.8333 253.5,85.1667 253.5,85.5C 248.167,85.5 242.833,85.5 237.5,85.5C 237.216,83.5853 237.549,81.9187 238.5,80.5 Z"/></g>
<g><path style="opacity:0.468" fill="#ffffff" d="M 433.5,66.5 C 434.486,70.97 434.819,75.6367 434.5,80.5C 432.833,80.5 431.167,80.5 429.5,80.5C 429.5,81.8333 429.5,83.1667 429.5,84.5C 434.5,84.5 439.5,84.5 444.5,84.5C 444.5,84.8333 444.5,85.1667 444.5,85.5C 439.167,85.5 433.833,85.5 428.5,85.5C 428.5,83.5 428.5,81.5 428.5,79.5C 430.167,79.5 431.833,79.5 433.5,79.5C 433.5,75.5 433.5,71.5 433.5,67.5C 433.5,67.1667 433.5,66.8333 433.5,66.5 Z"/></g>
<g><path style="opacity:0.149" fill="#ffffff" d="M 177.5,84.5 C 178.167,84.5 178.833,84.5 179.5,84.5C 183.017,85.6203 186.684,85.6203 190.5,84.5C 188.538,86.0173 186.205,86.6839 183.5,86.5C 181.833,86.3333 180.167,86.1667 178.5,86C 177.944,85.6174 177.611,85.1174 177.5,84.5 Z"/></g>
<g><path style="opacity:0.151" fill="#fcf0f1" d="M 206.5,84.5 C 208.979,85.6227 211.312,85.6227 213.5,84.5C 214.5,84.5 215.5,84.5 216.5,84.5C 216.389,85.1174 216.056,85.6174 215.5,86C 212.833,86.6667 210.167,86.6667 207.5,86C 206.944,85.6174 206.611,85.1174 206.5,84.5 Z"/></g>
<g><path style="opacity:0.149" fill="#fdf5f6" d="M 317.5,84.5 C 315.538,86.0173 313.205,86.6839 310.5,86.5C 308.631,86.4932 306.964,86.1599 305.5,85.5C 306.833,85.5 308.167,85.5 309.5,85.5C 312.206,85.4249 314.873,85.0916 317.5,84.5 Z"/></g>
<g><path style="opacity:0.152" fill="#fcf0f2" d="M 366.5,84.5 C 371.152,85.7624 375.819,85.7624 380.5,84.5C 378.366,86.0334 375.866,86.7001 373,86.5C 371.167,86.3333 369.333,86.1667 367.5,86C 366.944,85.6174 366.611,85.1174 366.5,84.5 Z"/></g>
<g><path style="opacity:0.149" fill="#fbeff0" d="M 396.5,84.5 C 399.814,85.7074 403.148,85.7074 406.5,84.5C 406.389,85.1174 406.056,85.6174 405.5,86C 402.833,86.6667 400.167,86.6667 397.5,86C 396.944,85.6174 396.611,85.1174 396.5,84.5 Z"/></g>
<g><path style="opacity:0.902" fill="#f8e3e2" d="M 117.5,85.5 C 124.19,84.3306 125.857,86.4973 122.5,92C 117.262,92.5941 115.595,90.4274 117.5,85.5 Z"/></g>
<g><path style="opacity:1" fill="#ffffff" d="M 118.5,86.5 C 119.833,86.5 121.167,86.5 122.5,86.5C 122.5,87.8333 122.5,89.1667 122.5,90.5C 121.167,90.5 119.833,90.5 118.5,90.5C 118.5,89.1667 118.5,87.8333 118.5,86.5 Z"/></g>
<g><path style="opacity:0.529" fill="#ffffff" d="M 74.5,94.5 C 73.1155,95.8009 71.6155,95.8009 70,94.5C 68.3302,87.8202 70.3302,86.1535 76,89.5C 76.8769,91.6742 76.3769,93.3409 74.5,94.5 Z"/></g>
<g><path style="opacity:0.999" fill="#ffffff" d="M 74.5,94.5 C 71.0897,94.6162 69.7564,92.9496 70.5,89.5C 71.8333,89.5 73.1667,89.5 74.5,89.5C 74.5,91.1667 74.5,92.8333 74.5,94.5 Z"/></g>
<g><path style="opacity:1" fill="#ffffff" d="M 107.5,94.5 C 107.5,96.1667 107.5,97.8333 107.5,99.5C 105.833,99.5 104.167,99.5 102.5,99.5C 101.833,95.5 103.5,93.8333 107.5,94.5 Z"/></g>
<g><path style="opacity:0.999" fill="#ffffff" d="M 85.5,95.5 C 89.5,94.8333 91.1667,96.5 90.5,100.5C 88.8333,100.5 87.1667,100.5 85.5,100.5C 85.5,98.8333 85.5,97.1667 85.5,95.5 Z"/></g>
<g><path style="opacity:0.276" fill="#fcf7f3" d="M 126.5,94.5 C 125.85,96.4352 125.517,98.4352 125.5,100.5C 124.861,99.9032 124.528,99.0698 124.5,98C 124.387,96.3009 125.053,95.1342 126.5,94.5 Z"/></g>
<g><path style="opacity:0.192" fill="#fdf9f9" d="M 85.5,95.5 C 90.8333,93.5 92.5,95.1667 90.5,100.5C 91.1667,96.5 89.5,94.8333 85.5,95.5 Z"/></g>
<g><path style="opacity:0.333" fill="#fcf2f2" d="M 107.5,94.5 C 103.5,93.8333 101.833,95.5 102.5,99.5C 100.5,94.1667 102.167,92.5 107.5,94.5 Z"/></g>
<g><path style="opacity:1" fill="#ffffff" d="M 126.5,94.5 C 131.5,93.5 133.5,95.5 132.5,100.5C 131.848,101.725 130.681,102.392 129,102.5C 127.319,102.392 126.152,101.725 125.5,100.5C 125.517,98.4352 125.85,96.4352 126.5,94.5 Z"/></g>
<g><path style="opacity:0.459" fill="#ffffff" d="M 132.5,100.5 C 133.5,95.5 131.5,93.5 126.5,94.5C 127.659,92.6231 129.326,92.1231 131.5,93C 134.234,95.539 134.568,98.039 132.5,100.5 Z"/></g>
<g><path style="opacity:0.216" fill="#ffffff" d="M 85.5,95.5 C 85.5,97.1667 85.5,98.8333 85.5,100.5C 87.1667,100.5 88.8333,100.5 90.5,100.5C 89.1336,102.351 87.467,102.684 85.5,101.5C 84.2072,99.3635 84.2072,97.3635 85.5,95.5 Z"/></g>
<g><path style="opacity:1" fill="#ffffff" d="M 62.5,96.5 C 66.7787,97.6105 68.2787,100.277 67,104.5C 62.5329,107.705 59.3662,106.705 57.5,101.5C 58.2449,98.7543 59.9116,97.0876 62.5,96.5 Z"/></g>
<g><path style="opacity:0.584" fill="#ffffff" d="M 107.5,94.5 C 108.793,96.3635 108.793,98.3635 107.5,100.5C 105.38,102.009 103.713,101.676 102.5,99.5C 104.167,99.5 105.833,99.5 107.5,99.5C 107.5,97.8333 107.5,96.1667 107.5,94.5 Z"/></g>
<g><path style="opacity:0.933" fill="#ffffff" d="M 87.5,114.5 C 87.5,112.5 87.5,110.5 87.5,108.5C 85.5,108.5 83.5,108.5 81.5,108.5C 83.0654,106.281 85.0654,105.948 87.5,107.5C 89.9882,110.093 89.9882,112.427 87.5,114.5 Z"/></g>
<g><path style="opacity:1" fill="#ffffff" d="M 107.5,104.5 C 112.335,105.16 114.168,107.827 113,112.5C 110.831,115.417 108.331,115.917 105.5,114C 102.523,110.053 103.189,106.886 107.5,104.5 Z"/></g>
<g><path style="opacity:1" fill="#ffffff" d="M 106.5,108.5 C 108.167,108.5 109.833,108.5 111.5,108.5C 111.5,109.833 111.5,111.167 111.5,112.5C 108.05,113.244 106.384,111.91 106.5,108.5 Z"/></g>
<g><path style="opacity:0.588" fill="#ffffff" d="M 81.5,108.5 C 80.7333,113.738 82.7333,115.738 87.5,114.5C 83.4911,117.623 80.8244,116.456 79.5,111C 79.6387,109.699 80.3054,108.866 81.5,108.5 Z"/></g>
<g><path style="opacity:1" fill="#ffffff" d="M 81.5,108.5 C 83.5,108.5 85.5,108.5 87.5,108.5C 87.5,110.5 87.5,112.5 87.5,114.5C 82.7333,115.738 80.7333,113.738 81.5,108.5 Z"/></g>
</svg>
